<?xml version="1.0" encoding="UTF-8" standalone="no"?>
<!-- Created with Inkscape (http://www.inkscape.org/) -->

<svg
   width="200"
   height="70"
   viewBox="0 0 52.916663 18.520834"
   version="1.1"
   id="svg5"
   inkscape:version="1.1.1 (3bf5ae0d25, 2021-09-20)"
   sodipodi:docname="lisalogo.svg"
   xmlns:inkscape="http://www.inkscape.org/namespaces/inkscape"
   xmlns:sodipodi="http://sodipodi.sourceforge.net/DTD/sodipodi-0.dtd"
   xmlns="http://www.w3.org/2000/svg"
   xmlns:svg="http://www.w3.org/2000/svg">
  <sodipodi:namedview
     id="namedview7"
     pagecolor="#ffffff"
     bordercolor="#666666"
     borderopacity="1.0"
     inkscape:pageshadow="2"
     inkscape:pageopacity="0.0"
     inkscape:pagecheckerboard="0"
     inkscape:document-units="px"
     showgrid="true"
     units="px"
     objecttolerance="1"
     guidetolerance="1"
     gridtolerance="1"
     inkscape:zoom="2"
     inkscape:cx="171.25"
     inkscape:cy="114"
     inkscape:window-width="1920"
     inkscape:window-height="974"
     inkscape:window-x="-11"
     inkscape:window-y="-11"
     inkscape:window-maximized="1"
     inkscape:current-layer="layer1">
    <inkscape:grid
       type="xygrid"
       id="grid6727"
       spacingx="26.458333"
       spacingy="9.2604165" />
  </sodipodi:namedview>
  <defs
     id="defs2">
    <pattern
       id="EMFhbasepattern"
       patternUnits="userSpaceOnUse"
       width="6"
       height="6"
       x="0"
       y="0" />
    <pattern
       id="EMFhbasepattern-5"
       patternUnits="userSpaceOnUse"
       width="6"
       height="6"
       x="0"
       y="0" />
  </defs>
  <g
     inkscape:label="Layer 1"
     inkscape:groupmode="layer"
     id="layer1">
    <path
       style="fill:#000000;stroke-width:0.176389"
       id="path1005"
       d="" />
    <path
       style="fill:#000000;stroke-width:0.176389"
       id="path985"
       d="" />
    <g
       id="g6725"
       transform="translate(-77.313536,-165.63545)">
      <path
         style="fill:#ff0000;fill-opacity:1;stroke-width:0.176115"
         d="m 101.70867,183.2794 c -1.843268,-0.40089 -3.132834,-1.22341 -3.957961,-2.5245 -0.280403,-0.44215 -0.509823,-0.86665 -0.509823,-0.94333 0,-0.0767 0.554762,-0.41879 1.232805,-0.76025 0.678044,-0.34146 1.232806,-0.54334 1.232806,-0.44863 0,0.33588 1.121933,1.44343 1.832533,1.80904 0.91056,0.4685 3.11322,0.62912 4.2526,0.31012 2.23217,-0.62497 2.66521,-2.9169 0.73986,-3.91581 -0.36294,-0.1883 -1.55172,-0.49219 -2.64173,-0.67532 -1.09,-0.18312 -2.39538,-0.46291 -2.90084,-0.62176 -1.133903,-0.35635 -2.281195,-1.31247 -2.711398,-2.25961 -0.426399,-0.93876 -0.42815,-2.59938 -0.0037,-3.53364 1.529854,-3.36757 8.430198,-3.89195 11.112678,-0.84449 0.39095,0.44414 0.71082,0.87637 0.71082,0.9605 0,0.0841 -0.50049,0.39976 -1.11221,0.70141 l -1.1122,0.54846 -0.51686,-0.484 c -1.15905,-1.08535 -3.41335,-1.5237 -5.053,-0.98257 -1.21515,0.40103 -1.87624,1.69821 -1.3585,2.66562 0.30837,0.57619 1.18982,0.89219 3.6891,1.32255 2.74383,0.47246 3.7246,0.83596 4.74647,1.75915 1.75343,1.58412 1.61778,4.93006 -0.26696,6.58489 -1.59802,1.40307 -4.5973,1.94269 -7.40446,1.33217 z m -22.431525,-8.01456 v -7.92517 h 1.142605 1.142604 l 0.04617,6.56028 0.04617,6.56029 h 4.006699 4.006699 l -8.1e-5,1.36489 -8e-5,1.36489 H 84.472536 79.27714 Z m 12.680288,1.21853 v -6.70666 l 1.40892,1.27218 1.408647,1.27219 2.74e-4,5.43447 v 5.43447 h -1.408921 -1.40892 z m 19.548787,6.58142 c 0,-0.0764 1.56687,-3.62602 3.48193,-7.888 l 3.48192,-7.74907 1.58609,-0.0501 1.58609,-0.0501 3.29939,7.35889 c 2.14072,4.7746 3.29871,7.5625 3.29745,7.93868 l -0.002,0.57978 -1.34168,-0.0514 -1.34169,-0.0514 -2.67272,-6.11312 c -1.47,-3.36221 -2.71437,-6.15476 -2.76528,-6.20566 -0.0509,-0.0509 -1.32045,2.69999 -2.82122,6.11311 l -2.72866,6.20567 -1.52984,0.0509 c -0.84141,0.028 -1.52984,-0.0116 -1.52983,-0.0881 z M 91.934,167.37376 l 2.841274,-0.0341 -2.74e-4,3.34618 -2.841,-2.59613 z"
         id="path953"
         sodipodi:nodetypes="ssssssssssscssscsssssssscccccccccccccccccccccccscccsccccssscsccccccc" />
      <path
         style="opacity:0.99;fill:#616161;fill-opacity:1;stroke-width:0.176777"
         d="m 354.91688,642.03086 c -1.74327,-1.5921 -4.10561,-3.7513 -5.24965,-4.79824 l -2.08005,-1.90353 -0.0243,-1.33048 -0.0243,-1.33048 2.455,-0.0583 c 1.35025,-0.0321 3.73774,-0.0584 5.30553,-0.0585 l 2.85052,-1.7e-4 v 6.18718 c 0,3.40295 -0.0142,6.18719 -0.0316,6.18719 -0.0174,0 -1.45787,-1.30263 -3.20114,-2.89472 z"
         id="path4529"
         transform="scale(0.26458333)" />
    </g>
  </g>
</svg>
